<mxfile host="Electron" agent="Mozilla/5.0 (X11; Linux x86_64) AppleWebKit/537.36 (KHTML, like Gecko) draw.io/26.2.2 Chrome/134.0.6998.178 Electron/35.1.2 Safari/537.36" version="26.2.2">
  <diagram name="ejercicio-1" id="u4HgY7ZWmL01He5cWX2q">
    <mxGraphModel dx="939" dy="581" grid="1" gridSize="10" guides="1" tooltips="1" connect="1" arrows="1" fold="1" page="1" pageScale="1" pageWidth="827" pageHeight="1169" math="0" shadow="0">
      <root>
        <mxCell id="0" />
        <mxCell id="1" parent="0" />
        <mxCell id="VpSl3PuQs3oZ_dHfMHBz-9" style="edgeStyle=orthogonalEdgeStyle;rounded=0;orthogonalLoop=1;jettySize=auto;html=1;entryX=0.5;entryY=0;entryDx=0;entryDy=0;" edge="1" parent="1" source="VpSl3PuQs3oZ_dHfMHBz-2" target="VpSl3PuQs3oZ_dHfMHBz-3">
          <mxGeometry relative="1" as="geometry" />
        </mxCell>
        <mxCell id="VpSl3PuQs3oZ_dHfMHBz-2" value="inicio" style="ellipse;whiteSpace=wrap;html=1;" vertex="1" parent="1">
          <mxGeometry x="340" y="90" width="120" height="80" as="geometry" />
        </mxCell>
        <mxCell id="VpSl3PuQs3oZ_dHfMHBz-10" style="edgeStyle=orthogonalEdgeStyle;rounded=0;orthogonalLoop=1;jettySize=auto;html=1;entryX=0.5;entryY=0;entryDx=0;entryDy=0;" edge="1" parent="1" source="VpSl3PuQs3oZ_dHfMHBz-3" target="VpSl3PuQs3oZ_dHfMHBz-5">
          <mxGeometry relative="1" as="geometry" />
        </mxCell>
        <mxCell id="VpSl3PuQs3oZ_dHfMHBz-3" value="Solicitar edad" style="shape=parallelogram;perimeter=parallelogramPerimeter;whiteSpace=wrap;html=1;fixedSize=1;" vertex="1" parent="1">
          <mxGeometry x="340" y="200" width="120" height="60" as="geometry" />
        </mxCell>
        <mxCell id="VpSl3PuQs3oZ_dHfMHBz-5" value="edad &amp;gt;=18" style="rhombus;whiteSpace=wrap;html=1;" vertex="1" parent="1">
          <mxGeometry x="360" y="290" width="80" height="80" as="geometry" />
        </mxCell>
        <mxCell id="VpSl3PuQs3oZ_dHfMHBz-11" value="eres mayor de edad" style="shape=parallelogram;perimeter=parallelogramPerimeter;whiteSpace=wrap;html=1;fixedSize=1;" vertex="1" parent="1">
          <mxGeometry x="480" y="390" width="130" height="60" as="geometry" />
        </mxCell>
        <mxCell id="VpSl3PuQs3oZ_dHfMHBz-12" style="edgeStyle=orthogonalEdgeStyle;rounded=0;orthogonalLoop=1;jettySize=auto;html=1;entryX=0.446;entryY=-0.01;entryDx=0;entryDy=0;entryPerimeter=0;" edge="1" parent="1" source="VpSl3PuQs3oZ_dHfMHBz-5" target="VpSl3PuQs3oZ_dHfMHBz-11">
          <mxGeometry relative="1" as="geometry" />
        </mxCell>
        <mxCell id="VpSl3PuQs3oZ_dHfMHBz-13" value="eres menor de edad" style="shape=parallelogram;perimeter=parallelogramPerimeter;whiteSpace=wrap;html=1;fixedSize=1;" vertex="1" parent="1">
          <mxGeometry x="220" y="390" width="130" height="60" as="geometry" />
        </mxCell>
        <mxCell id="VpSl3PuQs3oZ_dHfMHBz-14" style="edgeStyle=orthogonalEdgeStyle;rounded=0;orthogonalLoop=1;jettySize=auto;html=1;entryX=0.613;entryY=-0.019;entryDx=0;entryDy=0;entryPerimeter=0;" edge="1" parent="1" source="VpSl3PuQs3oZ_dHfMHBz-5" target="VpSl3PuQs3oZ_dHfMHBz-13">
          <mxGeometry relative="1" as="geometry" />
        </mxCell>
        <mxCell id="VpSl3PuQs3oZ_dHfMHBz-15" value="Fin" style="ellipse;whiteSpace=wrap;html=1;" vertex="1" parent="1">
          <mxGeometry x="390" y="510" width="90" height="50" as="geometry" />
        </mxCell>
        <mxCell id="VpSl3PuQs3oZ_dHfMHBz-16" style="edgeStyle=orthogonalEdgeStyle;rounded=0;orthogonalLoop=1;jettySize=auto;html=1;entryX=1;entryY=0.4;entryDx=0;entryDy=0;entryPerimeter=0;" edge="1" parent="1" source="VpSl3PuQs3oZ_dHfMHBz-11" target="VpSl3PuQs3oZ_dHfMHBz-15">
          <mxGeometry relative="1" as="geometry" />
        </mxCell>
        <mxCell id="VpSl3PuQs3oZ_dHfMHBz-17" style="edgeStyle=orthogonalEdgeStyle;rounded=0;orthogonalLoop=1;jettySize=auto;html=1;entryX=0;entryY=0.6;entryDx=0;entryDy=0;entryPerimeter=0;" edge="1" parent="1" source="VpSl3PuQs3oZ_dHfMHBz-13" target="VpSl3PuQs3oZ_dHfMHBz-15">
          <mxGeometry relative="1" as="geometry">
            <Array as="points">
              <mxPoint x="285" y="480" />
              <mxPoint x="370" y="480" />
              <mxPoint x="370" y="540" />
            </Array>
          </mxGeometry>
        </mxCell>
        <mxCell id="VpSl3PuQs3oZ_dHfMHBz-18" value="si" style="text;html=1;align=center;verticalAlign=middle;whiteSpace=wrap;rounded=0;" vertex="1" parent="1">
          <mxGeometry x="470" y="330" width="60" height="30" as="geometry" />
        </mxCell>
        <mxCell id="VpSl3PuQs3oZ_dHfMHBz-19" value="no" style="text;html=1;align=center;verticalAlign=middle;whiteSpace=wrap;rounded=0;" vertex="1" parent="1">
          <mxGeometry x="300" y="330" width="60" height="30" as="geometry" />
        </mxCell>
      </root>
    </mxGraphModel>
  </diagram>
</mxfile>
